<svg xmlns="http://www.w3.org/2000/svg" xmlns:xlink="http://www.w3.org/1999/xlink" width="500" zoomAndPan="magnify" viewBox="0 0 375 374.999991" height="500" preserveAspectRatio="xMidYMid meet" version="1.2"><defs><clipPath id="e01adcfb39"><path d="M 54.894531 45.609375 L 269 45.609375 L 269 329.109375 L 54.894531 329.109375 Z M 54.894531 45.609375 "/></clipPath><clipPath id="1a064c717d"><path d="M 282 59 L 320.394531 59 L 320.394531 316 L 282 316 Z M 282 59 "/></clipPath></defs><g id="d77c26a2ce"><rect x="0" width="375" y="0" height="374.999991" style="fill:#ffffff;fill-opacity:1;stroke:none;"/><rect x="0" width="375" y="0" height="374.999991" style="fill:#faa231;fill-opacity:1;stroke:none;"/><path style=" stroke:none;fill-rule:nonzero;fill:#f9f9fa;fill-opacity:1;" d="M 263.5 324.9375 L 59.640625 324.9375 L 59.640625 50.160156 L 263.5 50.160156 L 263.5 324.9375 "/><path style=" stroke:none;fill-rule:nonzero;fill:#faa231;fill-opacity:1;" d="M 140.234375 291.773438 L 92.828125 291.773438 L 92.828125 244.398438 L 140.234375 244.398438 L 140.234375 291.773438 "/><path style=" stroke:none;fill-rule:nonzero;fill:#faa231;fill-opacity:1;" d="M 140.234375 206.5 L 92.828125 206.5 L 92.828125 159.125 L 140.234375 159.125 L 140.234375 206.5 "/><g clip-rule="nonzero" clip-path="url(#e01adcfb39)"><path style=" stroke:none;fill-rule:nonzero;fill:#000000;fill-opacity:1;" d="M 263.5 329.675781 L 59.640625 329.675781 C 57.023438 329.675781 54.898438 327.554688 54.898438 324.9375 L 54.898438 107.011719 L 64.378906 107.011719 L 64.378906 320.199219 L 258.761719 320.199219 L 258.761719 54.898438 L 64.378906 54.898438 L 64.378906 97.535156 L 54.898438 97.535156 L 54.898438 50.160156 C 54.898438 47.546875 57.023438 45.425781 59.640625 45.425781 L 263.5 45.425781 C 266.121094 45.425781 268.242188 47.546875 268.242188 50.160156 L 268.242188 324.9375 C 268.242188 327.554688 266.121094 329.675781 263.5 329.675781 "/></g><path style=" stroke:none;fill-rule:nonzero;fill:#000000;fill-opacity:1;" d="M 116.53125 78.585938 L 78.605469 78.585938 L 78.605469 88.0625 L 92.828125 88.0625 L 92.828125 125.960938 L 102.308594 125.960938 L 102.308594 88.0625 L 116.53125 88.0625 L 116.53125 78.585938 "/><path style=" stroke:none;fill-rule:nonzero;fill:#000000;fill-opacity:1;" d="M 244.539062 78.585938 L 206.609375 78.585938 L 206.609375 88.0625 L 220.832031 88.0625 L 220.832031 125.960938 L 230.316406 125.960938 L 230.316406 88.0625 L 244.539062 88.0625 L 244.539062 78.585938 "/><path style=" stroke:none;fill-rule:nonzero;fill:#000000;fill-opacity:1;" d="M 154.460938 88.0625 L 154.460938 78.585938 L 130.753906 78.585938 C 128.136719 78.585938 126.011719 80.707031 126.011719 83.324219 L 126.011719 121.222656 C 126.011719 123.839844 128.136719 125.960938 130.753906 125.960938 L 154.460938 125.960938 L 154.460938 116.488281 L 135.496094 116.488281 L 135.496094 107.011719 L 154.460938 107.011719 L 154.460938 97.535156 L 135.496094 97.535156 L 135.496094 88.0625 L 154.460938 88.0625 "/><path style=" stroke:none;fill-rule:nonzero;fill:#000000;fill-opacity:1;" d="M 192.386719 125.960938 L 163.941406 125.960938 L 163.941406 116.488281 L 187.644531 116.488281 L 187.644531 107.011719 L 168.683594 107.011719 C 166.0625 107.011719 163.941406 104.890625 163.941406 102.273438 L 163.941406 83.324219 C 163.941406 80.707031 166.0625 78.585938 168.683594 78.585938 L 197.128906 78.585938 L 197.128906 88.0625 L 173.421875 88.0625 L 173.421875 97.535156 L 192.386719 97.535156 C 195.003906 97.535156 197.128906 99.65625 197.128906 102.273438 L 197.128906 121.222656 C 197.128906 123.839844 195.003906 125.960938 192.386719 125.960938 "/><path style=" stroke:none;fill-rule:nonzero;fill:#000000;fill-opacity:1;" d="M 121.273438 197.023438 C 120.019531 197.023438 118.8125 196.527344 117.921875 195.636719 L 103.699219 181.425781 L 110.402344 174.726562 L 121.003906 185.320312 L 146.117188 156.039062 L 153.316406 162.207031 L 124.871094 195.371094 C 124.011719 196.371094 122.773438 196.96875 121.457031 197.019531 C 121.394531 197.023438 121.332031 197.023438 121.273438 197.023438 "/><path style=" stroke:none;fill-rule:nonzero;fill:#000000;fill-opacity:1;" d="M 140.234375 211.238281 L 92.828125 211.238281 C 90.207031 211.238281 88.085938 209.117188 88.085938 206.5 L 88.085938 159.125 C 88.085938 156.507812 90.207031 154.386719 92.828125 154.386719 L 126.011719 154.386719 L 126.011719 163.863281 L 97.566406 163.863281 L 97.566406 201.761719 L 135.496094 201.761719 L 135.496094 192.285156 L 144.976562 192.285156 L 144.976562 206.5 C 144.976562 209.117188 142.855469 211.238281 140.234375 211.238281 "/><path style=" stroke:none;fill-rule:nonzero;fill:#000000;fill-opacity:1;" d="M 121.273438 282.300781 C 120.019531 282.300781 118.8125 281.800781 117.921875 280.910156 L 103.699219 266.699219 L 110.402344 260 L 121.003906 270.59375 L 146.117188 241.316406 L 153.316406 247.484375 L 124.871094 280.644531 C 124.011719 281.648438 122.773438 282.242188 121.457031 282.292969 C 121.394531 282.296875 121.332031 282.300781 121.273438 282.300781 "/><path style=" stroke:none;fill-rule:nonzero;fill:#000000;fill-opacity:1;" d="M 140.234375 296.511719 L 92.828125 296.511719 C 90.207031 296.511719 88.085938 294.390625 88.085938 291.773438 L 88.085938 244.398438 C 88.085938 241.78125 90.207031 239.660156 92.828125 239.660156 L 126.011719 239.660156 L 126.011719 249.136719 L 97.566406 249.136719 L 97.566406 287.035156 L 135.496094 287.035156 L 135.496094 277.5625 L 144.976562 277.5625 L 144.976562 291.773438 C 144.976562 294.390625 142.855469 296.511719 140.234375 296.511719 "/><path style=" stroke:none;fill-rule:nonzero;fill:#000000;fill-opacity:1;" d="M 235.054688 163.863281 L 163.941406 163.863281 L 163.941406 154.386719 L 235.054688 154.386719 L 235.054688 163.863281 "/><path style=" stroke:none;fill-rule:nonzero;fill:#000000;fill-opacity:1;" d="M 235.054688 187.550781 L 163.941406 187.550781 L 163.941406 178.074219 L 235.054688 178.074219 L 235.054688 187.550781 "/><path style=" stroke:none;fill-rule:nonzero;fill:#000000;fill-opacity:1;" d="M 235.054688 211.238281 L 163.941406 211.238281 L 163.941406 201.761719 L 235.054688 201.761719 L 235.054688 211.238281 "/><path style=" stroke:none;fill-rule:nonzero;fill:#000000;fill-opacity:1;" d="M 235.054688 249.136719 L 163.941406 249.136719 L 163.941406 239.660156 L 235.054688 239.660156 L 235.054688 249.136719 "/><path style=" stroke:none;fill-rule:nonzero;fill:#000000;fill-opacity:1;" d="M 235.054688 272.824219 L 163.941406 272.824219 L 163.941406 263.347656 L 235.054688 263.347656 L 235.054688 272.824219 "/><path style=" stroke:none;fill-rule:nonzero;fill:#000000;fill-opacity:1;" d="M 235.054688 296.511719 L 163.941406 296.511719 L 163.941406 287.035156 L 235.054688 287.035156 L 235.054688 296.511719 "/><path style=" stroke:none;fill-rule:nonzero;fill:#faa231;fill-opacity:1;" d="M 315.652344 268.085938 L 315.652344 272.824219 L 306.171875 310.722656 L 296.6875 310.722656 L 287.207031 272.824219 L 287.207031 268.085938 L 315.652344 268.085938 "/><path style=" stroke:none;fill-rule:nonzero;fill:#4d4d4d;fill-opacity:1;" d="M 315.652344 268.085938 L 287.207031 268.085938 L 287.207031 107.011719 L 315.652344 107.011719 L 315.652344 268.085938 "/><path style=" stroke:none;fill-rule:nonzero;fill:#faa231;fill-opacity:1;" d="M 315.652344 107.011719 L 287.207031 107.011719 L 287.207031 78.585938 C 287.207031 70.738281 293.574219 64.375 301.429688 64.375 C 309.285156 64.375 315.652344 70.738281 315.652344 78.585938 L 315.652344 107.011719 "/><g clip-rule="nonzero" clip-path="url(#1a064c717d)"><path style=" stroke:none;fill-rule:nonzero;fill:#000000;fill-opacity:1;" d="M 291.949219 102.273438 L 291.949219 78.585938 C 291.949219 73.363281 296.203125 69.113281 301.429688 69.113281 C 306.65625 69.113281 310.910156 73.363281 310.910156 78.585938 L 310.910156 102.273438 Z M 310.765625 272.824219 L 302.46875 305.988281 L 300.390625 305.988281 L 292.09375 272.824219 Z M 301.429688 59.636719 C 290.972656 59.636719 282.464844 68.136719 282.464844 78.585938 L 282.464844 272.824219 C 282.464844 273.210938 282.511719 273.597656 282.605469 273.972656 L 292.089844 311.875 C 292.617188 313.984375 294.511719 315.460938 296.6875 315.460938 L 306.171875 315.460938 C 308.347656 315.460938 310.242188 313.984375 310.769531 311.875 L 320.253906 273.972656 C 320.347656 273.597656 320.394531 273.210938 320.394531 272.824219 L 320.394531 249.136719 L 310.910156 249.136719 L 310.910156 263.347656 L 291.949219 263.347656 L 291.949219 111.75 L 310.910156 111.75 L 310.910156 239.660156 L 320.394531 239.660156 L 320.394531 78.585938 C 320.394531 68.136719 311.886719 59.636719 301.429688 59.636719 "/></g><g style="fill:#faa231;fill-opacity:1;"><g transform="translate(20.211597, 17.999731)"><path style="stroke:none" d="M 9.78125 0 L 8.828125 -3.15625 L 3.984375 -3.15625 L 3.03125 0 L 0 0 L 4.6875 -13.3125 L 8.125 -13.3125 L 12.8125 0 Z M 8.15625 -5.515625 C 7.269531 -8.378906 6.769531 -10 6.65625 -10.375 C 6.539062 -10.75 6.457031 -11.039062 6.40625 -11.25 C 6.207031 -10.476562 5.640625 -8.566406 4.703125 -5.515625 Z M 8.15625 -5.515625 "/></g></g><g style="fill:#faa231;fill-opacity:1;"><g transform="translate(33.029712, 17.999731)"><path style="stroke:none" d="M 0.640625 4.46875 C -0.0664062 4.46875 -0.675781 4.390625 -1.1875 4.234375 L -1.1875 2.0625 C -0.757812 2.175781 -0.328125 2.234375 0.109375 2.234375 C 0.578125 2.234375 0.914062 2.101562 1.125 1.84375 C 1.34375 1.582031 1.453125 1.195312 1.453125 0.6875 L 1.453125 -10.140625 L 4.21875 -10.140625 L 4.21875 1.09375 C 4.21875 2.175781 3.90625 3.007812 3.28125 3.59375 C 2.65625 4.175781 1.773438 4.46875 0.640625 4.46875 Z M 1.328125 -12.765625 C 1.328125 -13.660156 1.832031 -14.109375 2.84375 -14.109375 C 3.84375 -14.109375 4.34375 -13.660156 4.34375 -12.765625 C 4.34375 -12.335938 4.21875 -12.003906 3.96875 -11.765625 C 3.71875 -11.523438 3.34375 -11.40625 2.84375 -11.40625 C 1.832031 -11.40625 1.328125 -11.859375 1.328125 -12.765625 Z M 1.328125 -12.765625 "/></g></g><g style="fill:#faa231;fill-opacity:1;"><g transform="translate(38.699439, 17.999731)"><path style="stroke:none" d="M 3.65625 -5.09375 C 3.65625 -4.082031 3.816406 -3.320312 4.140625 -2.8125 C 4.472656 -2.300781 5.015625 -2.046875 5.765625 -2.046875 C 6.492188 -2.046875 7.019531 -2.300781 7.34375 -2.8125 C 7.675781 -3.320312 7.84375 -4.082031 7.84375 -5.09375 C 7.84375 -6.09375 7.675781 -6.84375 7.34375 -7.34375 C 7.019531 -7.84375 6.484375 -8.09375 5.734375 -8.09375 C 5.003906 -8.09375 4.472656 -7.84375 4.140625 -7.34375 C 3.816406 -6.851562 3.65625 -6.101562 3.65625 -5.09375 Z M 10.671875 -5.09375 C 10.671875 -3.4375 10.234375 -2.140625 9.359375 -1.203125 C 8.492188 -0.273438 7.28125 0.1875 5.71875 0.1875 C 4.75 0.1875 3.890625 -0.0234375 3.140625 -0.453125 C 2.398438 -0.878906 1.828125 -1.492188 1.421875 -2.296875 C 1.023438 -3.097656 0.828125 -4.03125 0.828125 -5.09375 C 0.828125 -6.75 1.257812 -8.035156 2.125 -8.953125 C 2.988281 -9.867188 4.207031 -10.328125 5.78125 -10.328125 C 6.75 -10.328125 7.601562 -10.113281 8.34375 -9.6875 C 9.09375 -9.269531 9.664062 -8.664062 10.0625 -7.875 C 10.46875 -7.082031 10.671875 -6.15625 10.671875 -5.09375 Z M 10.671875 -5.09375 "/></g></g><g style="fill:#faa231;fill-opacity:1;"><g transform="translate(50.202175, 17.999731)"><path style="stroke:none" d="M 8.640625 0 L 8.265625 -1.296875 L 8.125 -1.296875 C 7.820312 -0.828125 7.398438 -0.460938 6.859375 -0.203125 C 6.316406 0.0546875 5.695312 0.1875 5 0.1875 C 3.8125 0.1875 2.910156 -0.128906 2.296875 -0.765625 C 1.691406 -1.410156 1.390625 -2.332031 1.390625 -3.53125 L 1.390625 -10.140625 L 4.15625 -10.140625 L 4.15625 -4.21875 C 4.15625 -3.488281 4.285156 -2.9375 4.546875 -2.5625 C 4.804688 -2.195312 5.222656 -2.015625 5.796875 -2.015625 C 6.566406 -2.015625 7.125 -2.273438 7.46875 -2.796875 C 7.8125 -3.316406 7.984375 -4.175781 7.984375 -5.375 L 7.984375 -10.140625 L 10.765625 -10.140625 L 10.765625 0 Z M 8.640625 0 "/></g></g><g style="fill:#faa231;fill-opacity:1;"><g transform="translate(62.412493, 17.999731)"><path style="stroke:none" d="M 5.71875 -2.015625 C 6.207031 -2.015625 6.789062 -2.125 7.46875 -2.34375 L 7.46875 -0.28125 C 6.78125 0.03125 5.929688 0.1875 4.921875 0.1875 C 3.816406 0.1875 3.007812 -0.09375 2.5 -0.65625 C 2 -1.21875 1.75 -2.054688 1.75 -3.171875 L 1.75 -8.0625 L 0.421875 -8.0625 L 0.421875 -9.234375 L 1.953125 -10.15625 L 2.75 -12.296875 L 4.515625 -12.296875 L 4.515625 -10.140625 L 7.359375 -10.140625 L 7.359375 -8.0625 L 4.515625 -8.0625 L 4.515625 -3.171875 C 4.515625 -2.773438 4.625 -2.484375 4.84375 -2.296875 C 5.070312 -2.109375 5.363281 -2.015625 5.71875 -2.015625 Z M 5.71875 -2.015625 "/></g></g><g style="fill:#faa231;fill-opacity:1;"><g transform="translate(70.477112, 17.999731)"><path style="stroke:none" d="M 5.65625 -8.359375 C 5.0625 -8.359375 4.597656 -8.171875 4.265625 -7.796875 C 3.941406 -7.429688 3.753906 -6.90625 3.703125 -6.21875 L 7.578125 -6.21875 C 7.566406 -6.90625 7.390625 -7.429688 7.046875 -7.796875 C 6.703125 -8.171875 6.238281 -8.359375 5.65625 -8.359375 Z M 6.046875 0.1875 C 4.410156 0.1875 3.128906 -0.257812 2.203125 -1.15625 C 1.285156 -2.0625 0.828125 -3.34375 0.828125 -5 C 0.828125 -6.695312 1.253906 -8.007812 2.109375 -8.9375 C 2.960938 -9.863281 4.140625 -10.328125 5.640625 -10.328125 C 7.066406 -10.328125 8.175781 -9.921875 8.96875 -9.109375 C 9.769531 -8.296875 10.171875 -7.164062 10.171875 -5.71875 L 10.171875 -4.375 L 3.640625 -4.375 C 3.671875 -3.59375 3.898438 -2.976562 4.328125 -2.53125 C 4.765625 -2.09375 5.378906 -1.875 6.171875 -1.875 C 6.773438 -1.875 7.347656 -1.9375 7.890625 -2.0625 C 8.441406 -2.195312 9.015625 -2.398438 9.609375 -2.671875 L 9.609375 -0.53125 C 9.117188 -0.289062 8.597656 -0.113281 8.046875 0 C 7.503906 0.125 6.835938 0.1875 6.046875 0.1875 Z M 6.046875 0.1875 "/></g></g><g style="fill:#faa231;fill-opacity:1;"><g transform="translate(81.453697, 17.999731)"><path style="stroke:none" d="M 7.109375 -10.328125 C 7.484375 -10.328125 7.796875 -10.300781 8.046875 -10.25 L 7.84375 -7.65625 C 7.613281 -7.71875 7.335938 -7.75 7.015625 -7.75 C 6.140625 -7.75 5.453125 -7.519531 4.953125 -7.0625 C 4.460938 -6.613281 4.21875 -5.976562 4.21875 -5.15625 L 4.21875 0 L 1.453125 0 L 1.453125 -10.140625 L 3.546875 -10.140625 L 3.953125 -8.4375 L 4.09375 -8.4375 C 4.40625 -9.007812 4.828125 -9.46875 5.359375 -9.8125 C 5.898438 -10.15625 6.484375 -10.328125 7.109375 -10.328125 Z M 7.109375 -10.328125 "/></g></g><g style="fill:#faa231;fill-opacity:1;"><g transform="translate(94.716316, 17.999731)"><path style="stroke:none" d="M 8.640625 0 L 8.265625 -1.296875 L 8.125 -1.296875 C 7.820312 -0.828125 7.398438 -0.460938 6.859375 -0.203125 C 6.316406 0.0546875 5.695312 0.1875 5 0.1875 C 3.8125 0.1875 2.910156 -0.128906 2.296875 -0.765625 C 1.691406 -1.410156 1.390625 -2.332031 1.390625 -3.53125 L 1.390625 -10.140625 L 4.15625 -10.140625 L 4.15625 -4.21875 C 4.15625 -3.488281 4.285156 -2.9375 4.546875 -2.5625 C 4.804688 -2.195312 5.222656 -2.015625 5.796875 -2.015625 C 6.566406 -2.015625 7.125 -2.273438 7.46875 -2.796875 C 7.8125 -3.316406 7.984375 -4.175781 7.984375 -5.375 L 7.984375 -10.140625 L 10.765625 -10.140625 L 10.765625 0 Z M 8.640625 0 "/></g></g><g style="fill:#faa231;fill-opacity:1;"><g transform="translate(106.926634, 17.999731)"><path style="stroke:none" d="M 10.8125 0 L 8.046875 0 L 8.046875 -5.921875 C 8.046875 -6.648438 7.914062 -7.195312 7.65625 -7.5625 C 7.394531 -7.9375 6.976562 -8.125 6.40625 -8.125 C 5.632812 -8.125 5.078125 -7.863281 4.734375 -7.34375 C 4.390625 -6.820312 4.21875 -5.960938 4.21875 -4.765625 L 4.21875 0 L 1.453125 0 L 1.453125 -10.140625 L 3.5625 -10.140625 L 3.9375 -8.84375 L 4.09375 -8.84375 C 4.394531 -9.332031 4.816406 -9.703125 5.359375 -9.953125 C 5.898438 -10.203125 6.519531 -10.328125 7.21875 -10.328125 C 8.394531 -10.328125 9.285156 -10.007812 9.890625 -9.375 C 10.503906 -8.738281 10.8125 -7.816406 10.8125 -6.609375 Z M 10.8125 0 "/></g></g><g style="fill:#faa231;fill-opacity:1;"><g transform="translate(49.067415, 43.77999)"><path style="stroke:none" d="M 5.71875 -2.015625 C 6.207031 -2.015625 6.789062 -2.125 7.46875 -2.34375 L 7.46875 -0.28125 C 6.78125 0.03125 5.929688 0.1875 4.921875 0.1875 C 3.816406 0.1875 3.007812 -0.09375 2.5 -0.65625 C 2 -1.21875 1.75 -2.054688 1.75 -3.171875 L 1.75 -8.0625 L 0.421875 -8.0625 L 0.421875 -9.234375 L 1.953125 -10.15625 L 2.75 -12.296875 L 4.515625 -12.296875 L 4.515625 -10.140625 L 7.359375 -10.140625 L 7.359375 -8.0625 L 4.515625 -8.0625 L 4.515625 -3.171875 C 4.515625 -2.773438 4.625 -2.484375 4.84375 -2.296875 C 5.070312 -2.109375 5.363281 -2.015625 5.71875 -2.015625 Z M 5.71875 -2.015625 "/></g></g><g style="fill:#faa231;fill-opacity:1;"><g transform="translate(57.132033, 43.77999)"><path style="stroke:none" d="M 1.328125 -12.765625 C 1.328125 -13.660156 1.832031 -14.109375 2.84375 -14.109375 C 3.84375 -14.109375 4.34375 -13.660156 4.34375 -12.765625 C 4.34375 -12.335938 4.21875 -12.003906 3.96875 -11.765625 C 3.71875 -11.523438 3.34375 -11.40625 2.84375 -11.40625 C 1.832031 -11.40625 1.328125 -11.859375 1.328125 -12.765625 Z M 4.21875 0 L 1.453125 0 L 1.453125 -10.140625 L 4.21875 -10.140625 Z M 4.21875 0 "/></g></g><g style="fill:#faa231;fill-opacity:1;"><g transform="translate(62.80176, 43.77999)"><path style="stroke:none" d="M 5.71875 -2.015625 C 6.207031 -2.015625 6.789062 -2.125 7.46875 -2.34375 L 7.46875 -0.28125 C 6.78125 0.03125 5.929688 0.1875 4.921875 0.1875 C 3.816406 0.1875 3.007812 -0.09375 2.5 -0.65625 C 2 -1.21875 1.75 -2.054688 1.75 -3.171875 L 1.75 -8.0625 L 0.421875 -8.0625 L 0.421875 -9.234375 L 1.953125 -10.15625 L 2.75 -12.296875 L 4.515625 -12.296875 L 4.515625 -10.140625 L 7.359375 -10.140625 L 7.359375 -8.0625 L 4.515625 -8.0625 L 4.515625 -3.171875 C 4.515625 -2.773438 4.625 -2.484375 4.84375 -2.296875 C 5.070312 -2.109375 5.363281 -2.015625 5.71875 -2.015625 Z M 5.71875 -2.015625 "/></g></g><g style="fill:#faa231;fill-opacity:1;"><g transform="translate(70.866378, 43.77999)"><path style="stroke:none" d="M 7.109375 -10.328125 C 7.484375 -10.328125 7.796875 -10.300781 8.046875 -10.25 L 7.84375 -7.65625 C 7.613281 -7.71875 7.335938 -7.75 7.015625 -7.75 C 6.140625 -7.75 5.453125 -7.519531 4.953125 -7.0625 C 4.460938 -6.613281 4.21875 -5.976562 4.21875 -5.15625 L 4.21875 0 L 1.453125 0 L 1.453125 -10.140625 L 3.546875 -10.140625 L 3.953125 -8.4375 L 4.09375 -8.4375 C 4.40625 -9.007812 4.828125 -9.46875 5.359375 -9.8125 C 5.898438 -10.15625 6.484375 -10.328125 7.109375 -10.328125 Z M 7.109375 -10.328125 "/></g></g><g style="fill:#faa231;fill-opacity:1;"><g transform="translate(79.302927, 43.77999)"><path style="stroke:none" d="M 5.65625 -8.359375 C 5.0625 -8.359375 4.597656 -8.171875 4.265625 -7.796875 C 3.941406 -7.429688 3.753906 -6.90625 3.703125 -6.21875 L 7.578125 -6.21875 C 7.566406 -6.90625 7.390625 -7.429688 7.046875 -7.796875 C 6.703125 -8.171875 6.238281 -8.359375 5.65625 -8.359375 Z M 6.046875 0.1875 C 4.410156 0.1875 3.128906 -0.257812 2.203125 -1.15625 C 1.285156 -2.0625 0.828125 -3.34375 0.828125 -5 C 0.828125 -6.695312 1.253906 -8.007812 2.109375 -8.9375 C 2.960938 -9.863281 4.140625 -10.328125 5.640625 -10.328125 C 7.066406 -10.328125 8.175781 -9.921875 8.96875 -9.109375 C 9.769531 -8.296875 10.171875 -7.164062 10.171875 -5.71875 L 10.171875 -4.375 L 3.640625 -4.375 C 3.671875 -3.59375 3.898438 -2.976562 4.328125 -2.53125 C 4.765625 -2.09375 5.378906 -1.875 6.171875 -1.875 C 6.773438 -1.875 7.347656 -1.9375 7.890625 -2.0625 C 8.441406 -2.195312 9.015625 -2.398438 9.609375 -2.671875 L 9.609375 -0.53125 C 9.117188 -0.289062 8.597656 -0.113281 8.046875 0 C 7.503906 0.125 6.835938 0.1875 6.046875 0.1875 Z M 6.046875 0.1875 "/></g></g></g></svg>